<svg width="127" height="32" viewBox="0 0 127 32" fill="none" xmlns="http://www.w3.org/2000/svg">
<path d="M38.7752 0.00314416H36.1034C35.9392 0.00314416 35.8065 0.135272 35.8065 0.298859V1.97562C35.8065 2.06685 35.7339 2.13921 35.6423 2.13921H26.9354C26.7712 2.13921 26.6385 2.27133 26.6385 2.43492V4.50491C26.6385 4.6685 26.7712 4.80063 26.9354 4.80063H32.9674C33.1127 4.80063 33.1885 4.9768 33.0843 5.08061L26.8817 11.2591C26.7649 11.3755 26.7649 11.5643 26.8817 11.6775L28.4671 13.2285C28.5839 13.3449 28.7734 13.3417 28.8903 13.2222L37.3351 4.49233C37.4014 4.42627 37.5088 4.42627 37.5719 4.49233L46.0167 13.2222C46.1304 13.3417 46.3199 13.3417 46.4399 13.2285L48.0253 11.6775C48.1421 11.5611 48.1453 11.3724 48.0253 11.256L41.7943 5.07747C41.6901 4.97365 41.7627 4.79748 41.9112 4.79748H47.94C48.1042 4.79748 48.2369 4.66536 48.2369 4.50177V2.43177C48.2369 2.26819 48.1042 2.13606 47.94 2.13606H39.2331C39.1415 2.13606 39.0689 2.06371 39.0689 1.97247V0.295714C39.0689 0.132128 38.9362 0 38.772 0L38.7752 0.00314416Z" fill="#0012A0"/>
<path d="M26.9354 18.8911H35.6423C35.7339 18.8911 35.8065 18.9634 35.8065 19.0547V22.8329C35.8065 22.9241 35.7339 22.9965 35.6423 22.9965H26.9354C26.7712 22.9965 26.6385 23.1286 26.6385 23.2922V25.3622C26.6385 25.5258 26.7712 25.6579 26.9354 25.6579H44.8103C44.9019 25.6579 44.9745 25.7302 44.9745 25.8215V31.7011C44.9745 31.8647 45.1072 31.9969 45.2714 31.9969H47.9432C48.1074 31.9969 48.24 31.8647 48.24 31.7011V23.849C48.24 23.3771 47.8547 22.9965 47.381 22.9965H39.2363C39.1447 22.9965 39.072 22.9241 39.072 22.8329V19.0547C39.072 18.9634 39.1447 18.8911 39.2363 18.8911H47.9432C48.1074 18.8911 48.24 18.7589 48.24 18.5954V16.5254C48.24 16.3618 48.1074 16.2296 47.9432 16.2296H26.9354C26.7712 16.2296 26.6385 16.3618 26.6385 16.5254V18.5954C26.6385 18.7589 26.7712 18.8911 26.9354 18.8911Z" fill="#0012A0"/>
<path d="M53.1164 16.2297L58.9684 4.75659C59.0284 4.63704 59.2021 4.63704 59.2621 4.75659L65.114 16.2297C65.1867 16.3744 65.3667 16.4341 65.512 16.3586L67.4542 15.3771C67.5995 15.3048 67.6595 15.1254 67.5837 14.9807L62.3886 4.79748H67.29C67.4542 4.79748 67.5868 4.66536 67.5868 4.50177V2.43177C67.5868 2.26819 67.4542 2.13606 67.29 2.13606H50.9657C50.8015 2.13606 50.6688 2.26819 50.6688 2.43177V4.50177C50.6688 4.66536 50.8015 4.79748 50.9657 4.79748H55.8355L50.6404 14.9807C50.5678 15.1254 50.6246 15.3048 50.7699 15.3771L52.7153 16.3586C52.8606 16.431 53.0406 16.3744 53.1132 16.2297H53.1164Z" fill="#0012A0"/>
<path d="M69.9646 2.13606H72.6363C72.8006 2.13606 72.9332 2.26819 72.9332 2.43177V16.8211C72.9332 16.9847 72.8006 17.1168 72.6363 17.1168H69.9646C69.8004 17.1168 69.6677 16.9847 69.6677 16.8211V2.43177C69.6677 2.26819 69.8004 2.13606 69.9646 2.13606Z" fill="#0012A0"/>
<path d="M69.5036 29.3386H54.1015C54.0099 29.3386 53.9372 29.2662 53.9372 29.175V25.4943C53.9372 25.4031 54.0099 25.3307 54.1015 25.3307H66.6328C66.7971 25.3307 66.9297 25.1986 66.9297 25.035V22.965C66.9297 22.8014 66.7971 22.6693 66.6328 22.6693H54.1015C54.0099 22.6693 53.9372 22.5969 53.9372 22.5057V18.8911C53.9372 18.7275 53.8046 18.5954 53.6404 18.5954H50.9686C50.8044 18.5954 50.6718 18.7275 50.6718 18.8911V31.1443C50.6718 31.6162 51.057 32 51.5308 32H72.0774C72.5511 32 72.9364 31.6162 72.9364 31.1443V18.8911C72.9364 18.7275 72.8038 18.5954 72.6396 18.5954H69.9678C69.8036 18.5954 69.6709 18.7275 69.6709 18.8911V29.1718C69.6709 29.2631 69.5983 29.3354 69.5067 29.3354L69.5036 29.3386Z" fill="#0012A0"/>
<path d="M80.7182 2.67715L74.4336 14.9807C74.3578 15.1254 74.4178 15.3048 74.563 15.3771L76.5053 16.3586C76.6505 16.431 76.8306 16.3744 76.9032 16.2296L82.7552 4.75658C82.8152 4.63704 82.9889 4.63704 83.0489 4.75658L88.9009 16.2296C88.9735 16.3744 89.1535 16.4341 89.2988 16.3586L91.241 15.3771C91.3863 15.3048 91.4463 15.1254 91.3705 14.9807L85.0859 2.67715C84.9185 2.34683 84.5774 2.13921 84.2048 2.13921H81.593C81.2203 2.13921 80.8793 2.34683 80.7119 2.67715H80.7182Z" fill="#0012A0"/>
<path d="M99.692 7.98427H96.5907C96.4991 7.98427 96.4265 7.91192 96.4265 7.82069V2.43177C96.4265 2.26819 96.2939 2.13606 96.1296 2.13606H93.4579C93.2937 2.13606 93.161 2.26819 93.161 2.43177V31.7011C93.161 31.8647 93.2937 31.9969 93.4579 31.9969H96.1296C96.2939 31.9969 96.4265 31.8647 96.4265 31.7011V10.8093C96.4265 10.7181 96.4991 10.6457 96.5907 10.6457H99.692C99.8562 10.6457 99.9888 10.5136 99.9888 10.35V8.27998C99.9888 8.1164 99.8562 7.98427 99.692 7.98427Z" fill="#0012A0"/>
<path d="M126.628 16L122.38 17.3936L124.995 21.0083L120.735 19.6461L120.719 24.1038L118.075 20.5081L115.432 24.1038L115.42 19.6461L111.159 21.0083L113.771 17.3936L109.523 16L113.771 14.6064L111.159 10.9918L115.42 12.3539L115.432 7.89619L118.075 11.4951L120.719 7.89619L120.735 12.3539L124.995 10.9918L122.38 14.6064L126.628 16Z" fill="#CBDD00"/>
<path d="M17.1043 16L12.8567 17.3936L15.4716 21.0082L11.2113 19.6461L11.1955 24.1038L8.55216 20.5081L5.90882 24.1038L5.89303 19.6461L1.6359 21.0082L4.24766 17.3936L0 16L4.24766 14.6064L1.6359 10.9917L5.89619 12.3539L5.90882 7.89618L8.55216 11.4951L11.1955 7.89618L11.2113 12.3539L15.4716 10.9917L12.8567 14.6064L17.1043 16Z" fill="#CBDD00"/>
</svg>
